# xmcd
#
# Track frame offsets:
#	150
#	14625
#	32610
#
# Disc length: 622 seconds
#
# Revision: 1
# Processed by: cddbd v1.5.1PL0 Copyright (c) Steve Scherf et al.
# Submitted via: CDex 1.50Beta5
#
DISCID=1c026c03
DTITLE=藤崎　賢一 - Trust
DYEAR=1900
DGENRE=Rock
TTITLE0=Trust　Me
TTITLE1=I Belong To You
TTITLE2=在るべき場所
EXTD=
EXTT0=
EXTT1=
EXTT2=
PLAYORDER=
